HIERARCHY
ROOT hip
{
  OFFSET 0 0 0
  CHANNELS 6 Xposition Yposition Zposition Zrotation Yrotation Xrotation
  JOINT abdomen
  {
    OFFSET 0 20.6881 -0.73152
    CHANNELS 3 Zrotation Xrotation Yrotation
    JOINT chest
    {
      OFFSET 0 11.7043 -0.48768
      CHANNELS 3 Zrotation Xrotation Yrotation
      JOINT neck
      {
        OFFSET 0 22.1894 -2.19456
        CHANNELS 3 Zrotation Xrotation Yrotation
        JOINT head
        {
          OFFSET -0.24384 7.07133 1.2192
          CHANNELS 3 Zrotation Xrotation Yrotation
          JOINT leftEye
          {
            OFFSET 4.14528 8.04674 8.04672
            CHANNELS 3 Zrotation Xrotation Yrotation
            End Site
            {
              OFFSET 1 0 0
            }
          }
          JOINT rightEye
          {
            OFFSET -3.6576 8.04674 8.04672
            CHANNELS 3 Zrotation Xrotation Yrotation
            End Site
            {
              OFFSET 1 0 0
            }
          }
        }
      }
      JOINT rCollar
      {
        OFFSET -2.68224 19.2634 -4.8768
        CHANNELS 3 Zrotation Xrotation Yrotation
        JOINT rShldr
        {
          OFFSET -8.77824 -1.95073 1.46304
          CHANNELS 3 Zrotation Xrotation Yrotation
          JOINT rForeArm
          {
            OFFSET -28.1742 -1.7115 0.48768
            CHANNELS 3 Zrotation Xrotation Yrotation
            JOINT rHand
            {
              OFFSET -22.5879 0.773209 7.07136
              CHANNELS 3 Zrotation Xrotation Yrotation
              JOINT rThumb1
              {
                OFFSET -1.2192 -0.487915 3.41376
                CHANNELS 3 Zrotation Xrotation Yrotation
                JOINT rThumb2
                {
                  OFFSET -3.37035 -0.52449 3.41376
                  CHANNELS 3 Zrotation Xrotation Yrotation
                  End Site
                  {
                    OFFSET -1.78271 -1.18214 1.43049
                  }
                }
              }
              JOINT rIndex1
              {
                OFFSET -7.75947 0.938293 5.60832
                CHANNELS 3 Zrotation Xrotation Yrotation
                JOINT rIndex2
                {
                  OFFSET -2.54057 -0.884171 1.56538
                  CHANNELS 3 Zrotation Xrotation Yrotation
                  End Site
                  {
                    OFFSET -1.62519 -0.234802 1.16502
                  }
                }
              }
              JOINT rMid1
              {
                OFFSET -8.24714 1.18213 3.41376
                CHANNELS 3 Zrotation Xrotation Yrotation
                JOINT rMid2
                {
                  OFFSET -3.10165 -0.590103 1.0647
                  CHANNELS 3 Zrotation Xrotation Yrotation
                  End Site
                  {
                    OFFSET -2.48547 -0.328903 0.83742
                  }
                }
              }
              JOINT rRing1
              {
                OFFSET -8.82822 0.546677 1.51678
                CHANNELS 3 Zrotation Xrotation Yrotation
                JOINT rRing2
                {
                  OFFSET -2.60934 -0.819778 -0.0198488
                  CHANNELS 3 Zrotation Xrotation Yrotation
                  End Site
                  {
                    OFFSET -2.33842 -0.294052 0.168128
                  }
                }
              }
              JOINT rPinky1
              {
                OFFSET -8.27202 -0.0477905 -0.4584
                CHANNELS 3 Zrotation Xrotation Yrotation
                JOINT rPinky2
                {
                  OFFSET -1.82734 -0.647385 -0.700984
                  CHANNELS 3 Zrotation Xrotation Yrotation
                  End Site
                  {
                    OFFSET -1.69225 -0.51767 -0.607171
                  }
                }
              }
            }
          }
        }
      }
      JOINT lCollar
      {
        OFFSET 2.68224 19.2634 -4.8768
        CHANNELS 3 Zrotation Xrotation Yrotation
        JOINT lShldr
        {
          OFFSET 8.77824 -1.95073 1.46304
          CHANNELS 3 Zrotation Xrotation Yrotation
          JOINT lForeArm
          {
            OFFSET 28.1742 -1.7115 0.48768
            CHANNELS 3 Zrotation Xrotation Yrotation
            JOINT lHand
            {
              OFFSET 22.5879 0.773209 7.07136
              CHANNELS 3 Zrotation Xrotation Yrotation
              JOINT lThumb1
              {
                OFFSET 1.2192 -0.487915 3.41376
                CHANNELS 3 Zrotation Xrotation Yrotation
                JOINT lThumb2
                {
                  OFFSET 3.37035 -0.52449 3.41376
                  CHANNELS 3 Zrotation Xrotation Yrotation
                  End Site
                  {
                    OFFSET 1.78271 -1.18214 1.43049
                  }
                }
              }
              JOINT lIndex1
              {
                OFFSET 7.75947 0.938293 5.60832
                CHANNELS 3 Zrotation Xrotation Yrotation
                JOINT lIndex2
                {
                  OFFSET 2.54057 -0.884171 1.56538
                  CHANNELS 3 Zrotation Xrotation Yrotation
                  End Site
                  {
                    OFFSET 1.62519 -0.234802 1.16502
                  }
                }
              }
              JOINT lMid1
              {
                OFFSET 8.24714 1.18213 3.41376
                CHANNELS 3 Zrotation Xrotation Yrotation
                JOINT lMid2
                {
                  OFFSET 3.10165 -0.590103 1.0647
                  CHANNELS 3 Zrotation Xrotation Yrotation
                  End Site
                  {
                    OFFSET 2.48547 -0.328903 0.83742
                  }
                }
              }
              JOINT lRing1
              {
                OFFSET 8.82822 0.546677 1.51678
                CHANNELS 3 Zrotation Xrotation Yrotation
                JOINT lRing2
                {
                  OFFSET 2.60934 -0.819778 -0.0198488
                  CHANNELS 3 Zrotation Xrotation Yrotation
                  End Site
                  {
                    OFFSET 2.33842 -0.294052 0.168128
                  }
                }
              }
              JOINT lPinky1
              {
                OFFSET 8.27202 -0.0477905 -0.4584
                CHANNELS 3 Zrotation Xrotation Yrotation
                JOINT lPinky2
                {
                  OFFSET 1.82734 -0.647385 -0.700984
                  CHANNELS 3 Zrotation Xrotation Yrotation
                  End Site
                  {
                    OFFSET 1.69225 -0.51767 -0.607171
                  }
                }
              }
            }
          }
        }
      }
    }
  }
  JOINT rButtock
  {
    OFFSET -8.77824 4.35084 1.2192
    CHANNELS 3 Zrotation Xrotation Yrotation
    JOINT rThigh
    {
      OFFSET 0 -1.70687 -2.19456
      CHANNELS 3 Zrotation Xrotation Yrotation
      JOINT rShin
      {
        OFFSET 0 -36.8199 0.73152
        CHANNELS 3 Zrotation Xrotation Yrotation
        JOINT rFoot
        {
          OFFSET 0.73152 -45.1104 -5.12064
          CHANNELS 3 Zrotation Xrotation Yrotation
          End Site
          {
            OFFSET -1.1221 -3.69964 12.103
          }
        }
      }
    }
  }
  JOINT lButtock
  {
    OFFSET 8.77824 4.35084 1.2192
    CHANNELS 3 Zrotation Xrotation Yrotation
    JOINT lThigh
    {
      OFFSET 0 -1.70687 -2.19456
      CHANNELS 3 Zrotation Xrotation Yrotation
      JOINT lShin
      {
        OFFSET 0 -36.8199 0.73152
        CHANNELS 3 Zrotation Xrotation Yrotation
        JOINT lFoot
        {
          OFFSET -0.73152 -45.1104 -5.12064
          CHANNELS 3 Zrotation Xrotation Yrotation
          End Site
          {
            OFFSET 1.1221 -3.69964 12.103
          }
        }
      }
    }
  }
}
MOTION
Frames:	5
Frame Time:	0.03333
0.0 0.0 0.0 0.0 0.0 0.0 0.0 0.0 0.0 0.0 0.0 0.0 0.0 0.0 0.0 0.0 0.0 0.0 0.0 0.0 0.0 0.0 0.0 0.0 0.0 0.0 0.0 0.0 0.0 0.0 0.0 0.0 0.0 0.0 0.0 0.0 0.0 0.0 0.0 0.0 0.0 0.0 0.0 0.0 0.0 0.0 0.0 0.0 0.0 0.0 0.0 0.0 0.0 0.0 0.0 0.0 0.0 0.0 0.0 0.0 0.0 0.0 0.0 0.0 0.0 0.0 0.0 0.0 0.0 0.0 0.0 0.0 0.0 0.0 0.0 0.0 0.0 0.0 0.0 0.0 0.0 0.0 0.0 0.0 0.0 0.0 0.0 0.0 0.0 0.0 0.0 0.0 0.0 0.0 0.0 0.0 0.0 0.0 0.0 0.0 0.0 0.0 0.0 0.0 0.0 0.0 0.0 0.0 0.0 0.0 0.0 0.0 0.0 0.0 0.0 0.0 0.0 0.0 0.0 0.0 0.0 0.0 0.0 0.0 0.0 0.0 0.0 0.0 0.0 0.0 0.0 0.0
0.0206 63.4653 -0.2052 -0.21886 50.195122 -1.11859 -3.027439 0.239805 91.811501 -5.390061 -13.145695 146.80904 7.220101 -19.921485 59.146466 35.481726 -23.604359 41.459176 -120.749666 -10.890615 -19.032271 -36.207594 2.840413 -8.673482 76.601422 19.005741 8.769162 10.307953 -44.836015 4.386404 114.228312 72.278912 17.323428 174.541148 -21.409147 28.806069 9.872533 2.812897 43.453627 91.766578 79.627461 126.48153 -72.353097 -27.649744 -33.890511 21.530192 35.448514 -179.93232 -24.385805 -15.523453 -82.314375 -41.227964 -45.969552 -93.208731 -52.824937 -8.533264 -95.299098 -39.138912 57.889985 22.038107 67.331945 -10.972455 -52.690858 -20.960858 63.389606 -4.258394 60.11754 27.953194 -146.1663 156.700867 -6.397175 -171.031651 -53.13799 -83.145959 148.247755 -41.57367 -50.857482 39.640865 -137.21164 -18.107489 -67.81628 -59.173682 -51.774094 176.758383 34.638057 -71.973549 -9.265392 -22.208375 66.645739 -68.540418 14.876243 -16.8757 140.996592 145.654979 -36.730333 -138.958313 -88.396379 6.420474 83.401672 -102.566866 -61.934217 -87.392452 -164.998667 26.764101 57.086859 143.112211 -10.761476 129.922968 53.560131 -0.111551 95.985334 9.732688 53.519359 -15.730529 7.105066 -2.434351 86.291066 -36.66229 -52.732525 144.517865 -42.808368 14.191472 -97.591488 6.386654 41.41335 167.569265 7.259818 -0.453585 98.98897 -76.451931 31.105862 82.705733
-1.9869 62.096799999999995 -2.5715 -4.810276 38.308734 0.543681 2.760865 1.467131 159.552472 4.728293 -3.217361 -136.018898 1.081544 -4.215427 2.719273 -12.273475 -29.279184 -27.917512 -0.550087 -0.030742 6.397323 116.417344 16.90217 -26.9604 -146.352654 30.380263 169.482708 118.319134 -74.70472 167.487688 166.516208 32.85438 80.23273 -177.635971 -10.080419 140.424851 9.332162 23.056926 8.649946 -151.349405 -2.222595 130.489064 1.351821 12.766798 -4.187114 36.812183 13.488239 -6.557758 -163.291608 4.015963 144.809581 172.131845 -2.831377 130.854824 -113.137619 -25.698491 -133.947852 30.312148 -30.292613 -40.987015 -18.641737 -36.067219 -19.786372 137.863873 41.148891 -123.522657 -38.317334 -48.970567 -10.300424 102.308179 -24.460769 147.016229 -32.664529 34.877974 114.147154 172.353407 11.160704 -137.8739 -14.396176 -8.840667 -26.697554 13.798756 -53.175752 42.432818 151.758178 -60.895346 -127.89115 27.613428 78.039271 -65.443624 62.213125 53.554793 -72.126624 103.865846 -86.339831 154.532003 147.401797 -22.114474 165.976358 -162.881609 -74.18707 -153.399389 78.786548 -82.320918 77.8052 -163.542673 10.367045 142.042901 -2.793891 -19.308637 -4.609544 -2.826155 -0.82973 3.352491 11.979197 28.439333 23.793128 -95.57362 29.315663 51.428419 -81.2554 47.073196 -82.974461 132.287445 55.717372 -162.090739 -3.779175 -39.248745 -129.994617 69.267339 -38.406134 -46.032523
-2.4645 70.1332 -3.8381 -4.061834 28.934799 -0.470445 2.658934 6.612028 -25.625638 0.563693 3.156053 28.903257 -10.62412 13.702523 -140.217389 31.9352 36.602543 120.231051 -19.71516 -6.380625 35.569626 -15.708299 4.98995 -35.059604 -142.817453 42.024292 139.357862 -74.298991 17.774126 30.03971 -168.896796 -36.249681 -93.142867 -2.452694 35.724388 -6.867224 -163.83373 9.548228 85.017547 -177.257508 -22.200893 67.164089 28.459543 -67.549056 41.745382 -172.404702 14.367248 -162.427529 -17.346117 -39.162375 7.446495 -175.624925 39.423641 -159.870474 -133.936148 -33.539186 -143.298602 81.937363 27.688127 -31.251552 -66.471409 -37.307483 -70.556582 45.483092 -27.321556 -2.17459 -21.858306 -11.575195 4.380334 108.492706 -8.801429 -172.515225 177.39933 -27.771167 107.891674 -18.902913 19.762517 13.187533 -16.915301 -28.165739 -35.164841 59.291173 27.361759 0.39292 8.849283 -16.026574 8.761009 -164.363899 57.256854 10.899941 118.252332 73.277559 -86.132896 10.791597 47.182874 -28.496955 173.980449 42.073949 -174.05234 124.333684 11.561928 -161.896168 167.005109 5.683038 112.904605 62.219044 -10.716579 55.692415 72.611482 1.573691 54.270207 -86.409133 35.513583 -10.882377 9.805912 43.938103 -115.141132 135.630468 3.714678 -77.056332 -58.273015 33.637141 -118.548009 82.414193 82.037817 178.69268 48.417455 -21.301087 97.604257 -12.412788 3.984128 158.292746
-1.8145000000000002 73.2608 -3.7815000000000003 -2.793944 19.461402 -0.086232 0.940449 6.836691 2.596813 4.448322 0.945579 -7.361512 -20.317268 17.832381 -100.630199 46.544781 23.896678 90.70969 4.96777 -1.244391 -28.109784 0.18952 -0.070665 -40.897262 -64.272698 48.589278 60.35484 74.898809 -18.326669 85.886453 170.788199 -23.928172 45.903165 162.148675 -19.058713 139.478572 0.607607 7.876227 0.926418 -40.872848 -41.952704 -40.469595 -8.382993 -37.655137 6.184432 -3.83367 -54.043216 -74.376486 176.348634 7.927679 126.399204 -101.990896 -3.363362 39.956704 -112.114694 -46.022966 -120.920061 -111.812921 18.348889 -157.15414 16.121194 6.62488 -7.31142 5.582016 -47.157405 61.799825 -17.048425 18.61719 9.97159 -88.816643 -35.950023 -30.349108 -78.157021 40.002965 -29.484323 7.186972 50.069181 16.709262 175.12172 -8.922022 -62.503854 143.729224 -40.836366 -79.438202 8.956792 26.331675 2.705458 -12.73176 -48.095704 -103.654111 165.958182 -47.929259 -176.811944 -11.213228 33.261424 -1.277256 -136.500876 -82.196764 -153.515792 -140.274381 -12.505413 178.765755 169.970564 -12.380342 111.010051 60.935816 -45.272635 -28.472314 18.230849 -18.227471 -1.606059 -28.565982 -11.713127 -148.270479 -51.734862 -33.943788 -97.741206 -40.489539 -9.496243 -169.774671 73.793735 5.966052 62.87044 -73.559545 32.805815 44.012677 36.661725 21.699348 -95.395421 -143.575134 -68.303286 -29.659666
